<svg width="25" height="25" viewBox="0 0 25 25" fill="none" xmlns="http://www.w3.org/2000/svg">
<path d="M14.3335 4.17555C14.4218 4.88515 14.3524 5.6055 14.13 6.28513C13.9076 6.96475 13.5379 7.58688 13.0473 8.10705L10.9788 10.3293C10.8384 10.48 10.6685 10.6002 10.4797 10.6824C10.2908 10.7645 10.0871 10.8069 9.88114 10.8069C9.67519 10.8069 9.47146 10.7645 9.28262 10.6824C9.09378 10.6002 8.92388 10.48 8.78351 10.3293L6.71351 8.10705C6.40201 7.77041 6.13852 7.39233 5.93051 6.98355C4.39656 8.54505 3.43286 10.5774 3.19463 12.7533C2.9564 14.9292 3.45751 17.1219 4.61725 18.9784C5.77699 20.8348 7.52784 22.2468 9.5878 22.987C11.6477 23.7271 13.8969 23.7524 15.9729 23.0586C18.049 22.3649 19.8311 20.9925 21.0322 19.1626C22.2333 17.3327 22.7835 15.1518 22.5942 12.9711C22.4049 10.7904 21.487 8.73689 19.9885 7.14135C18.49 5.54582 16.4981 4.50113 14.3335 4.17555ZM17.0433 16.7246L18.1833 17.2946L18.4683 19.8746C17.3502 20.9099 15.966 21.6136 14.4708 21.9071L13.6008 18.8546C13.5635 18.7163 13.487 18.5917 13.3806 18.4959C13.2741 18.4001 13.1422 18.3371 13.0008 18.3146L8.50076 17.5646C8.4007 17.5508 8.29895 17.5559 8.20076 17.5796L5.87576 18.1646C5.06025 16.8576 4.62881 15.3476 4.63076 13.8071C4.63127 13.3218 4.67393 12.8375 4.75826 12.3596L5.66576 12.8996L7.84826 15.0896C7.94864 15.1867 8.07353 15.2548 8.20959 15.2865C8.34565 15.3182 8.48777 15.3124 8.62076 15.2696L10.8708 14.5196C11.0291 14.4668 11.1643 14.3608 11.2533 14.2196L12.5358 12.3071H15.1308C15.3037 12.3074 15.4715 12.2478 15.6055 12.1384C15.7395 12.029 15.8314 11.8766 15.8658 11.7071L16.5483 8.28705L18.0933 7.40955C19.1375 8.26052 19.9565 9.35514 20.4783 10.5971L17.7183 12.4346C17.5619 12.5377 17.4496 12.6955 17.4033 12.8771L16.6533 15.8771C16.6124 16.0416 16.6288 16.2152 16.6997 16.3692C16.7706 16.5232 16.8917 16.6485 17.0433 16.7246Z" fill="#B6B6B6"/>
<path d="M9.32949 9.81855C9.39968 9.89396 9.48465 9.9541 9.5791 9.99522C9.67356 10.0363 9.77547 10.0576 9.87849 10.0576C9.98151 10.0576 10.0834 10.0363 10.1779 9.99522C10.2723 9.9541 10.3573 9.89396 10.4275 9.81855L12.4967 7.5963C13.0546 7.0193 13.4252 6.28726 13.5599 5.49607C13.6947 4.70489 13.5874 3.89145 13.252 3.1623C12.9822 2.60114 12.5757 2.11679 12.0698 1.75377C11.564 1.39076 10.975 1.16072 10.357 1.0848C10.0404 1.04673 9.72035 1.04673 9.40374 1.0848C8.78508 1.16012 8.19532 1.38989 7.68875 1.75294C7.18219 2.11598 6.7751 2.60065 6.50499 3.1623C6.16965 3.89163 6.0624 4.70524 6.1973 5.49656C6.33219 6.28788 6.70295 7.02001 7.26099 7.59705L9.32949 9.81855ZM9.87849 3.30705C10.1752 3.30705 10.4652 3.39502 10.7118 3.55984C10.9585 3.72467 11.1508 3.95893 11.2643 4.23302C11.3778 4.50711 11.4075 4.80871 11.3497 5.09968C11.2918 5.39065 11.1489 5.65793 10.9391 5.86771C10.7294 6.07749 10.4621 6.22035 10.1711 6.27823C9.88015 6.3361 9.57855 6.3064 9.30447 6.19287C9.03038 6.07934 8.79611 5.88708 8.63129 5.6404C8.46646 5.39373 8.37849 5.10372 8.37849 4.80705C8.37849 4.40922 8.53653 4.02769 8.81783 3.74639C9.09913 3.46508 9.48067 3.30705 9.87849 3.30705Z" fill="#499333"/>
</svg>
