<svg width="57" height="48" viewBox="0 0 57 48" fill="none" xmlns="http://www.w3.org/2000/svg">
<path d="M30 40.4287C30 37.7765 28.9464 35.233 27.0711 33.3576C25.1957 31.4823 22.6522 30.4287 20 30.4287C17.3478 30.4287 14.8043 31.4823 12.9289 33.3576C11.0536 35.233 10 37.7765 10 40.4287" stroke="white" stroke-width="3.33333" stroke-linecap="round" stroke-linejoin="round"/>
<path d="M19.9987 30.429C23.6806 30.429 26.6654 27.4443 26.6654 23.7624C26.6654 20.0805 23.6806 17.0957 19.9987 17.0957C16.3168 17.0957 13.332 20.0805 13.332 23.7624C13.332 27.4443 16.3168 30.429 19.9987 30.429Z" stroke="white" stroke-width="3.33333" stroke-linecap="round" stroke-linejoin="round"/>
<path d="M19.9987 43.762C29.2034 43.762 36.6654 36.3001 36.6654 27.0954C36.6654 17.8906 29.2034 10.4287 19.9987 10.4287C10.794 10.4287 3.33203 17.8906 3.33203 27.0954C3.33203 36.3001 10.794 43.762 19.9987 43.762Z" stroke="white" stroke-width="3.33333" stroke-linecap="round" stroke-linejoin="round"/>
<path d="M46.8398 11.667H49.1732" stroke="#F0942D" stroke-width="2.33333" stroke-linecap="round" stroke-linejoin="round"/>
<path d="M46.8398 16.333H49.1732" stroke="#F0942D" stroke-width="2.33333" stroke-linecap="round" stroke-linejoin="round"/>
<path d="M35.3711 17.4997C35.6116 16.816 36.0584 16.2239 36.6498 15.805C37.2412 15.3861 37.948 15.1611 38.6728 15.1611C39.3975 15.1611 40.1043 15.3861 40.6957 15.805C41.2871 16.2239 41.7339 16.816 41.9744 17.4997" stroke="#F0942D" stroke-width="2.33333" stroke-linecap="round" stroke-linejoin="round"/>
<path d="M38.6732 15.1667C39.9618 15.1667 41.0065 14.122 41.0065 12.8333C41.0065 11.5447 39.9618 10.5 38.6732 10.5C37.3845 10.5 36.3398 11.5447 36.3398 12.8333C36.3398 14.122 37.3845 15.1667 38.6732 15.1667Z" stroke="#F0942D" stroke-width="2.33333" stroke-linecap="round" stroke-linejoin="round"/>
<path d="M51.5039 5.83301H32.8372C31.5486 5.83301 30.5039 6.87768 30.5039 8.16634V19.833C30.5039 21.1217 31.5486 22.1663 32.8372 22.1663H51.5039C52.7926 22.1663 53.8372 21.1217 53.8372 19.833V8.16634C53.8372 6.87768 52.7926 5.83301 51.5039 5.83301Z" stroke="#F0942D" stroke-width="2.33333" stroke-linecap="round" stroke-linejoin="round"/>
</svg>
