<svg width="57" height="57" viewBox="0 0 57 57" fill="none" xmlns="http://www.w3.org/2000/svg">
<circle cx="38.1797" cy="28.2988" r="10" fill="white"/>
<path d="M38 14.25H19C11.1299 14.25 4.75 20.6299 4.75 28.5C4.75 36.3701 11.1299 42.75 19 42.75H38C45.8701 42.75 52.25 36.3701 52.25 28.5C52.25 20.6299 45.8701 14.25 38 14.25Z" stroke="white" stroke-width="3.33333" stroke-linecap="round" stroke-linejoin="round"/>
<path d="M44.1773 29.2128C44.1773 32.7753 41.6836 34.5566 38.7196 35.5897C38.5644 35.6423 38.3958 35.6398 38.2422 35.5826C35.2711 34.5566 32.7773 32.7753 32.7773 29.2128V24.2253C32.7773 24.0364 32.8524 23.8551 32.986 23.7215C33.1196 23.5879 33.3009 23.5128 33.4898 23.5128C34.9148 23.5128 36.6961 22.6578 37.9358 21.5748C38.0868 21.4459 38.2788 21.375 38.4773 21.375C38.6759 21.375 38.8679 21.4459 39.0188 21.5748C40.2657 22.6649 42.0398 23.5128 43.4648 23.5128C43.6538 23.5128 43.835 23.5879 43.9687 23.7215C44.1023 23.8551 44.1773 24.0364 44.1773 24.2253V29.2128Z" stroke="#93936b" stroke-width="1.33333" stroke-linecap="round" stroke-linejoin="round"/>
<path d="M36.3398 28.5002L37.7648 29.9252L40.6148 27.0752" stroke="#93936b" stroke-width="1.33333" stroke-linecap="round" stroke-linejoin="round"/>
</svg>
